
<svg
  version="1.0"
  xmlns="http://www.w3.org/2000/svg"
  xmlns:xlink="http://www.w3.org/1999/xlink"
  width="2400"
  height="1800"
>
  
  <rect
    x="0"
    y="0"
    width="100%"
    height="100%"
    fill="#ffffff"
    fill-opacity="1"
  ></rect>
  <svg
    version="1.0"
    xmlns="http://www.w3.org/2000/svg"
    xmlns:xlink="http://www.w3.org/1999/xlink"
    x="0"
    y="0"
    width="2400"
    height="1800"
    viewBox="0 0 340.000000 250.000000"
    preserveAspectRatio="xMidYMid meet"
    color-interpolation-filters="sRGB"
  >
    <defs><linearGradient id="92" x1="0%" y1="0%" x2="100%" y2="0%"><stop offset="0%" stop-color="#fa71cd"/> <stop offset="100%" stop-color="#9b59b6"/></linearGradient><linearGradient id="93" x1="0%" y1="0%" x2="100%" y2="0%"><stop offset="0%" stop-color="#f9d423"/> <stop offset="100%" stop-color="#f83600"/></linearGradient><linearGradient id="94" x1="0%" y1="0%" x2="100%" y2="0%"><stop offset="0%" stop-color="#0064d2"/> <stop offset="100%" stop-color="#1cb0f6"/></linearGradient><linearGradient id="95" x1="0%" y1="0%" x2="100%" y2="0%"><stop offset="0%" stop-color="#f00978"/> <stop offset="100%" stop-color="#3f51b1"/></linearGradient><linearGradient id="96" x1="0%" y1="0%" x2="100%" y2="0%"><stop offset="0%" stop-color="#7873f5"/> <stop offset="100%" stop-color="#ec77ab"/></linearGradient><linearGradient id="97" x1="0%" y1="0%" x2="100%" y2="0%"><stop offset="0%" stop-color="#f9d423"/> <stop offset="100%" stop-color="#e14fad"/></linearGradient><linearGradient id="98" x1="0%" y1="0%" x2="100%" y2="0%"><stop offset="0%" stop-color="#009efd"/> <stop offset="100%" stop-color="#2af598"/></linearGradient><linearGradient id="99" x1="0%" y1="0%" x2="100%" y2="0%"><stop offset="0%" stop-color="#ffcc00"/> <stop offset="100%" stop-color="#00b140"/></linearGradient><linearGradient id="100" x1="0%" y1="0%" x2="100%" y2="0%"><stop offset="0%" stop-color="#d51007"/> <stop offset="100%" stop-color="#ff8177"/></linearGradient><linearGradient id="102" x1="0%" y1="0%" x2="100%" y2="0%"><stop offset="0%" stop-color="#a2b6df"/> <stop offset="100%" stop-color="#0c3483"/></linearGradient><linearGradient id="103" x1="0%" y1="0%" x2="100%" y2="0%"><stop offset="0%" stop-color="#7ac5d8"/> <stop offset="100%" stop-color="#eea2a2"/></linearGradient><linearGradient id="104" x1="0%" y1="0%" x2="100%" y2="0%"><stop offset="0%" stop-color="#00ecbc"/> <stop offset="100%" stop-color="#007adf"/></linearGradient><linearGradient id="105" x1="0%" y1="0%" x2="100%" y2="0%"><stop offset="0%" stop-color="#b88746"/> <stop offset="100%" stop-color="#fdf5a6"/></linearGradient></defs> <g fill="#ac2929" class="icon-text-wrapper icon-svg-group iconsvg" transform="translate(80.92499542236328,69.71249389648438)"><g class="iconsvg-imagesvg" transform="translate(59.07500457763672,0)"><g><rect fill="#ac2929" fill-opacity="0" stroke-width="2" x="0" y="0" width="60" height="68.09901596921924" class="image-rect"/> <svg x="0" y="0" width="60" height="68.09901596921924" filtersec="colorsb3670789152" class="image-svg-svg primary" style="overflow: visible;"><svg xmlns="http://www.w3.org/2000/svg" viewBox="0.8100004196166992 0.4200000762939453 98.3800048828125 111.66000366210938"><g fill="#ac2929"><circle cx="42.88" cy="22.14" r="21.72"/><circle cx="12.71" cy="49.82" r="11.9"/><circle cx="75.67" cy="60.06" r="23.52"/><circle cx="30.56" cy="88.14" r="23.94"/></g></svg></svg> </g></g> <g transform="translate(0,75.09901428222656)"><g fill-rule="" class="tp-name iconsvg-namesvg" transform="translate(0,0)"><g transform="scale(1)"><g><path d="M19.63-19.91L19.09-17.53 14.05-17.53 10.32 0 3.54 0 7.27-17.53 2.29-17.53 2.85-19.91 19.63-19.91ZM27.97-21.07L25.93-11.48 26.15-11.48Q26.74-12.07 27.53-12.57L27.53-12.57Q28.19-13.01 29.1-13.36 30.01-13.7 31.13-13.7L31.13-13.7Q32.76-13.7 33.83-12.87 34.9-12.04 34.9-10.6L34.9-10.6Q34.9-10.16 34.8-9.61 34.71-9.06 34.58-8.45 34.46-7.84 34.32-7.23 34.18-6.62 34.08-6.11L34.08-6.11 32.76 0 26.4 0 28.12-8.18Q28.19-8.59 28.28-9.01 28.37-9.44 28.37-9.78L28.37-9.78Q28.37-10.25 28.14-10.55 27.9-10.85 27.43-10.85L27.43-10.85Q26.87-10.85 26.35-10.44 25.84-10.03 25.55-9.72L25.55-9.72 23.48 0 17.09 0 21.54-21.07 27.97-21.07ZM35.46 0L38.31-13.48 43.42-13.48 43.89-11.13 44.11-11.13Q44.84-12.26 45.96-13.04 47.09-13.83 48.94-13.83L48.94-13.83Q49.07-13.83 49.33-13.81 49.6-13.8 49.93-13.72 50.26-13.64 50.62-13.5 50.98-13.36 51.33-13.11L51.33-13.11 49.95-6.65 46.53-6.65Q46.47-8.59 46.18-9.36 45.9-10.13 45.27-10.13L45.27-10.13Q44.96-10.13 44.6-9.99 44.24-9.84 43.86-9.37L43.86-9.37 41.86 0 35.46 0ZM66.56-6.3L57.75-6.3Q57.63-5.61 57.58-4.99 57.53-4.36 57.53-3.86L57.53-3.86Q57.53-3.57 57.56-3.23 57.6-2.88 57.71-2.59 57.82-2.29 58.02-2.09 58.22-1.88 58.6-1.88L58.6-1.88Q58.88-1.88 59.24-2.07 59.6-2.26 59.96-2.6 60.32-2.95 60.65-3.45 60.98-3.95 61.17-4.58L61.17-4.58 66.31-4.58 65.5-1.22Q64.87-0.82 64.06-0.53 63.24-0.25 62.33-0.08 61.42 0.09 60.48 0.17 59.54 0.25 58.69 0.25L58.69 0.25Q57.13 0.25 55.78-0.03 54.43-0.31 53.43-1 52.42-1.69 51.84-2.84 51.26-3.98 51.26-5.67L51.26-5.67Q51.26-7.21 51.75-8.68 52.23-10.16 53.38-11.3 54.52-12.45 56.45-13.14 58.38-13.83 61.26-13.83L61.26-13.83Q64.4-13.83 65.98-12.85 67.57-11.88 67.57-9.81L67.57-9.81Q67.57-8.97 67.32-7.98 67.06-6.99 66.56-6.3L66.56-6.3ZM61.92-10.03L61.92-10.03Q61.92-11.01 61.61-11.35 61.3-11.69 60.86-11.69L60.86-11.69Q60.36-11.69 59.93-11.37 59.51-11.04 59.16-10.49 58.82-9.94 58.54-9.23 58.25-8.53 58.07-7.74L58.07-7.74 61.64-7.74Q61.7-8.12 61.77-8.53L61.77-8.53Q61.83-8.87 61.88-9.28 61.92-9.69 61.92-10.03ZM69.73-9.53L70.33-12.32Q71.92-13.11 73.6-13.47 75.28-13.83 77.35-13.83L77.35-13.83Q79.36-13.83 80.67-13.51 81.99-13.2 82.77-12.6 83.56-12.01 83.87-11.19 84.18-10.38 84.18-9.34L84.18-9.34Q84.18-8.75 84.11-8.06 84.03-7.37 83.93-6.9L83.93-6.9 82.46 0 77.41 0 76.85-2.01 76.66-2.01Q75.66-0.91 74.32-0.33 72.99 0.25 71.67 0.25L71.67 0.25Q70.92 0.25 70.2 0.03 69.48-0.19 68.91-0.64 68.35-1.1 68.01-1.8 67.66-2.51 67.66-3.51L67.66-3.51Q67.66-5.14 68.55-6.1 69.45-7.05 70.91-7.54 72.36-8.03 74.2-8.15 76.03-8.28 77.88-8.28L77.88-8.28Q77.94-8.59 78.04-9.17 78.13-9.75 78.13-10.19L78.13-10.19Q78.13-10.75 77.83-11.24 77.54-11.73 76.6-11.73L76.6-11.73Q75.5-11.73 74.98-11.08 74.46-10.44 74.31-9.53L74.31-9.53 69.73-9.53ZM77.04-4.39L77.54-6.8 76.97-6.8Q76.06-6.8 75.42-6.57 74.78-6.33 74.39-5.96 73.99-5.58 73.81-5.11 73.62-4.64 73.62-4.17L73.62-4.17Q73.62-3.42 74.01-3.04 74.4-2.67 74.93-2.67L74.93-2.67Q75.59-2.67 76.24-3.14 76.88-3.61 77.04-4.39L77.04-4.39ZM96.38-11.44L98.42-21.07 104.85-21.07 100.36 0 95.28 0 94.72-2.01 94.5-2.01Q94.31-1.72 93.92-1.33 93.53-0.94 92.93-0.58 92.34-0.22 91.52 0.02 90.71 0.25 89.64 0.25L89.64 0.25Q88.54 0.25 87.77-0.08 87.01-0.41 86.52-0.97 86.03-1.54 85.81-2.34 85.59-3.14 85.59-4.08L85.59-4.08Q85.59-4.48 85.66-5.38 85.72-6.27 85.96-7.35 86.19-8.43 86.65-9.58 87.1-10.72 87.87-11.66 88.64-12.6 89.76-13.22 90.89-13.83 92.49-13.83L92.49-13.83Q92.99-13.83 93.56-13.73 94.12-13.64 94.64-13.39 95.16-13.14 95.57-12.67 95.97-12.2 96.16-11.44L96.16-11.44 96.38-11.44ZM94.59-10.75L94.59-10.75Q93.84-10.75 93.34-9.92 92.84-9.09 92.52-8 92.21-6.9 92.07-5.8 91.93-4.7 91.93-4.17L91.93-4.17Q91.93-3.54 92.12-3.12 92.3-2.7 92.84-2.7L92.84-2.7Q93.15-2.7 93.45-2.84 93.75-2.98 94.01-3.18 94.28-3.39 94.47-3.61 94.66-3.83 94.78-3.98L94.78-3.98 96-9.69Q95.78-10.03 95.42-10.39 95.06-10.75 94.59-10.75ZM112.09-8.59L113.53-8.59Q114.47-8.59 115.11-9.37 115.76-10.16 116.18-11.29 116.6-12.42 116.79-13.64 116.98-14.86 116.98-15.77L116.98-15.77Q116.98-16.62 116.7-17.2 116.42-17.78 115.47-17.78L115.47-17.78 114.06-17.78 112.09-8.59ZM113.44-6.58L111.65-6.58 110.24 0 103.47 0 107.7-19.91 114.94-19.91Q116.73-19.91 118.2-19.72 119.68-19.53 120.74-18.97 121.81-18.4 122.4-17.35 123-16.3 123-14.55L123-14.55Q123-12.92 122.48-11.46 121.96-10 120.82-8.92 119.68-7.84 117.86-7.21 116.04-6.58 113.44-6.58L113.44-6.58ZM132.15-13.83L132.15-13.83Q135.89-13.83 137.58-12.51L137.58-12.51Q139.37-11.13 139.37-7.93L139.37-7.93Q139.37-5.96 138.71-4.37 138.05-2.79 136.86-1.76L136.86-1.76Q134.47 0.25 129.96 0.25L129.96 0.25Q126.1 0.25 124.44-1.22L124.44-1.22Q122.65-2.76 122.65-5.83L122.65-5.83Q122.65-7.87 123.49-9.53 124.32-11.19 125.88-12.29L125.88-12.29Q128.17-13.83 132.15-13.83ZM130.02-1.88L130.02-1.88Q130.81-1.88 131.39-2.76 131.97-3.64 132.31-4.91 132.66-6.18 132.83-7.54 133-8.9 133-9.91L133-9.91Q133-10.79 132.83-11.24 132.66-11.69 132.09-11.69L132.09-11.69Q131.25-11.69 130.63-10.79 130.02-9.88 129.65-8.62 129.27-7.37 129.1-6.05 128.93-4.73 128.93-3.92L128.93-3.92Q128.93-1.88 130.02-1.88ZM149.27-13.48L146.36 0 139.99 0 142.85-13.48 149.27-13.48ZM150.09-17.59L150.09-17.59Q150.09-16.87 149.79-16.34 149.49-15.8 149.01-15.43 148.52-15.05 147.89-14.86 147.27-14.67 146.61-14.67L146.61-14.67Q145.35-14.67 144.51-15.27 143.66-15.86 143.66-17.15L143.66-17.15Q143.66-17.84 143.94-18.39 144.23-18.94 144.71-19.3 145.2-19.66 145.84-19.85 146.48-20.03 147.17-20.03L147.17-20.03Q148.4-20.03 149.24-19.44 150.09-18.84 150.09-17.59ZM157.71-11.48L157.9-11.48Q158.55-12.1 159.37-12.64L159.37-12.64Q160.09-13.07 161.06-13.45 162.03-13.83 163.23-13.83L163.23-13.83Q164.86-13.83 165.92-13 166.99-12.17 166.99-10.72L166.99-10.72Q166.99-10.32 166.89-9.74 166.8-9.16 166.67-8.53 166.55-7.9 166.41-7.26 166.27-6.62 166.17-6.11L166.17-6.11 164.86 0 158.49 0 160.22-8.18Q160.28-8.59 160.37-9.01 160.47-9.44 160.47-9.78L160.47-9.78Q160.47-10.25 160.23-10.55 160-10.85 159.53-10.85L159.53-10.85Q158.96-10.85 158.44-10.44 157.93-10.03 157.65-9.75L157.65-9.75 155.58 0 149.18 0 152.03-13.48 157.14-13.48 157.71-11.48ZM168.71-11.38L169.15-13.48Q170.31-13.73 171.19-14.05 172.07-14.36 172.8-14.83 173.54-15.3 174.22-15.99 174.89-16.68 175.67-17.68L175.67-17.68 178.9-17.68 177.99-13.48 180.44-13.48 180.03-11.38 177.55-11.38 176.27-5.27Q176.11-4.55 176.02-3.98 175.92-3.42 175.92-3.1L175.92-3.1Q175.92-2.48 176.38-2.32 176.83-2.16 178.09-2.16L178.09-2.16 177.62 0Q177.4 0.06 176.94 0.09 176.49 0.13 175.94 0.17 175.39 0.22 174.81 0.24 174.23 0.25 173.79 0.25L173.79 0.25Q173.01 0.25 172.26 0.14 171.5 0.03 170.91-0.3 170.31-0.63 169.95-1.25 169.59-1.88 169.59-2.95L169.59-2.95Q169.59-3.32 169.64-3.89 169.68-4.45 169.84-5.14L169.84-5.14 171.16-11.38 168.71-11.38Z" transform="translate(-2.2899999618530273, 21.06999969482422)"/></g> </g></g> <g fill-rule="" class="tp-slogan iconsvg-slogansvg" fill="#144579" transform="translate(32.46000289916992,27.31999969482422)"> <g transform="scale(1, 1)"><g transform="scale(1)"><path d="M0.28-7.87L1.94 0L3.13 0L4.30-4.74C4.36-5.04 4.43-5.34 4.49-5.63C4.56-5.93 4.63-6.22 4.69-6.53L4.74-6.53C4.80-6.22 4.87-5.93 4.93-5.63C4.99-5.34 5.05-5.04 5.12-4.74L6.31 0L7.51 0L9.14-7.87L8.18-7.87L7.36-3.59C7.28-3.16 7.20-2.74 7.13-2.32C7.06-1.90 6.98-1.48 6.91-1.04L6.86-1.04C6.77-1.48 6.67-1.90 6.58-2.33C6.48-2.75 6.38-3.17 6.29-3.59L5.20-7.87L4.28-7.87L3.19-3.59C3.10-3.16 3.01-2.74 2.92-2.32C2.82-1.90 2.73-1.48 2.64-1.04L2.59-1.04C2.52-1.48 2.44-1.90 2.36-2.32C2.28-2.73 2.21-3.16 2.14-3.59L1.31-7.87ZM13.34 0.14C13.84 0.14 14.29 0.05 14.71-0.14C15.12-0.34 15.47-0.61 15.77-0.97C16.07-1.32 16.31-1.75 16.47-2.26C16.63-2.77 16.72-3.34 16.72-3.97C16.72-4.60 16.63-5.16 16.47-5.66C16.31-6.16 16.07-6.58 15.77-6.93C15.47-7.28 15.12-7.55 14.71-7.73C14.29-7.92 13.84-8.02 13.34-8.02C12.85-8.02 12.39-7.92 11.98-7.74C11.57-7.56 11.22-7.29 10.92-6.94C10.62-6.59 10.39-6.17 10.23-5.67C10.07-5.17 9.98-4.60 9.98-3.97C9.98-3.34 10.07-2.77 10.23-2.26C10.39-1.75 10.62-1.32 10.92-0.97C11.22-0.61 11.57-0.34 11.98-0.14C12.39 0.05 12.85 0.14 13.34 0.14ZM13.34-0.73C12.99-0.73 12.67-0.81 12.39-0.96C12.11-1.11 11.86-1.33 11.66-1.61C11.45-1.90 11.30-2.24 11.18-2.63C11.07-3.03 11.02-3.48 11.02-3.97C11.02-4.46 11.07-4.90 11.18-5.29C11.30-5.68 11.45-6.02 11.66-6.29C11.86-6.56 12.11-6.77 12.39-6.92C12.67-7.07 12.99-7.14 13.34-7.14C13.70-7.14 14.01-7.07 14.30-6.92C14.58-6.77 14.83-6.56 15.03-6.29C15.23-6.02 15.39-5.68 15.50-5.29C15.62-4.90 15.67-4.46 15.67-3.97C15.67-3.48 15.62-3.03 15.50-2.63C15.39-2.24 15.23-1.90 15.03-1.61C14.83-1.33 14.58-1.11 14.30-0.96C14.01-0.81 13.70-0.73 13.34-0.73ZM19.40-4.14L19.40-7.07L20.72-7.07C21.34-7.07 21.81-6.96 22.14-6.76C22.47-6.55 22.63-6.18 22.63-5.66C22.63-5.15 22.47-4.77 22.14-4.52C21.81-4.27 21.34-4.14 20.72-4.14ZM22.73 0L23.86 0L21.86-3.43C22.40-3.57 22.83-3.82 23.15-4.19C23.47-4.56 23.63-5.05 23.63-5.66C23.63-6.07 23.56-6.42 23.42-6.70C23.29-6.98 23.10-7.20 22.85-7.38C22.61-7.56 22.32-7.68 21.98-7.76C21.64-7.83 21.27-7.87 20.87-7.87L18.41-7.87L18.41 0L19.40 0L19.40-3.32L20.83-3.32ZM25.38-7.87L25.38 0L26.38 0L26.38-2.50L27.73-4.09L30.08 0L31.20 0L28.36-4.87L30.82-7.87L29.69-7.87L26.41-3.92L26.38-3.92L26.38-7.87ZM34.75-7.87L34.75 0L37.26 0C37.70 0 38.10-0.05 38.47-0.14C38.84-0.24 39.16-0.38 39.42-0.58C39.68-0.77 39.89-1.01 40.03-1.30C40.18-1.58 40.25-1.92 40.25-2.30C40.25-2.85 40.09-3.28 39.77-3.59C39.45-3.90 39.00-4.10 38.42-4.19L38.42-4.24C38.89-4.36 39.23-4.57 39.46-4.89C39.68-5.21 39.79-5.56 39.79-5.95C39.79-6.30 39.73-6.59 39.59-6.83C39.46-7.08 39.28-7.28 39.04-7.43C38.81-7.58 38.52-7.69 38.19-7.76C37.86-7.84 37.49-7.87 37.09-7.87ZM36.91-4.51L35.75-4.51L35.75-7.08L36.96-7.08C37.58-7.08 38.04-6.99 38.35-6.80C38.65-6.61 38.81-6.30 38.81-5.87C38.81-5.43 38.66-5.09 38.37-4.86C38.08-4.63 37.59-4.51 36.91-4.51ZM37.12-0.79L35.75-0.79L35.75-3.77L37.12-3.77C37.81-3.77 38.34-3.65 38.71-3.43C39.08-3.20 39.26-2.84 39.26-2.35C39.26-1.82 39.08-1.42 38.70-1.17C38.32-0.92 37.80-0.79 37.12-0.79ZM41.81-7.87L41.81 0L46.46 0L46.46-0.85L42.80-0.85L42.80-3.71L45.79-3.71L45.79-4.56L42.80-4.56L42.80-7.03L46.34-7.03L46.34-7.87ZM49.76-7.03L49.76 0L50.77 0L50.77-7.03L53.15-7.03L53.15-7.87L47.39-7.87L47.39-7.03ZM56.20-7.03L56.20 0L57.20 0L57.20-7.03L59.58-7.03L59.58-7.87L53.82-7.87L53.82-7.03ZM61.00-7.87L61.00 0L65.65 0L65.65-0.85L61.99-0.85L61.99-3.71L64.98-3.71L64.98-4.56L61.99-4.56L61.99-7.03L65.53-7.03L65.53-7.87ZM68.32-4.14L68.32-7.07L69.64-7.07C70.25-7.07 70.72-6.96 71.05-6.76C71.38-6.55 71.54-6.18 71.54-5.66C71.54-5.15 71.38-4.77 71.05-4.52C70.72-4.27 70.25-4.14 69.64-4.14ZM71.64 0L72.77 0L70.78-3.43C71.31-3.57 71.74-3.82 72.06-4.19C72.38-4.56 72.54-5.05 72.54-5.66C72.54-6.07 72.47-6.42 72.34-6.70C72.20-6.98 72.01-7.20 71.77-7.38C71.52-7.56 71.23-7.68 70.89-7.76C70.55-7.83 70.18-7.87 69.78-7.87L67.32-7.87L67.32 0L68.32 0L68.32-3.32L69.74-3.32ZM75.91-7.87L77.58 0L78.77 0L79.93-4.74C80.00-5.04 80.06-5.34 80.13-5.63C80.20-5.93 80.26-6.22 80.33-6.53L80.38-6.53C80.44-6.22 80.50-5.93 80.56-5.63C80.62-5.34 80.69-5.04 80.76-4.74L81.95 0L83.15 0L84.78-7.87L83.82-7.87L82.99-3.59C82.91-3.16 82.84-2.74 82.76-2.32C82.69-1.90 82.62-1.48 82.55-1.04L82.50-1.04C82.40-1.48 82.31-1.90 82.21-2.33C82.12-2.75 82.02-3.17 81.92-3.59L80.83-7.87L79.92-7.87L78.83-3.59C78.74-3.16 78.65-2.74 78.55-2.32C78.46-1.90 78.36-1.48 78.28-1.04L78.23-1.04C78.16-1.48 78.08-1.90 78.00-2.32C77.92-2.73 77.84-3.16 77.77-3.59L76.94-7.87ZM86.15-7.87L86.15 0L87.14 0L87.14-7.87ZM90.94-7.03L90.94 0L91.94 0L91.94-7.03L94.32-7.03L94.32-7.87L88.56-7.87L88.56-7.03ZM95.74-7.87L95.74 0L96.73 0L96.73-3.71L100.39-3.71L100.39 0L101.40 0L101.40-7.87L100.39-7.87L100.39-4.57L96.73-4.57L96.73-7.87ZM109.33-3.20L106.97-3.20L107.34-4.40C107.48-4.84 107.62-5.28 107.75-5.72C107.88-6.15 108.00-6.60 108.12-7.06L108.17-7.06C108.30-6.60 108.42-6.15 108.55-5.72C108.68-5.28 108.82-4.84 108.96-4.40ZM109.58-2.40L110.33 0L111.40 0L108.73-7.87L107.60-7.87L104.94 0L105.96 0L106.72-2.40ZM112.51-7.87L112.51 0L113.51 0L113.51-7.87Z" transform="translate(-0.276, 8.016)"/></g></g></g></g></g><defs v-gra="od"/>
  </svg>
</svg>


